<svg width="18" height="18" viewBox="0 0 18 18" fill="none" xmlns="http://www.w3.org/2000/svg">
<path fill-rule="evenodd" clip-rule="evenodd" d="M6.75 1.6875C7.06066 1.6875 7.3125 1.93934 7.3125 2.25V3.1875L12 3.1875C12.3107 3.1875 12.5625 3.43934 12.5625 3.75C12.5625 4.06066 12.3107 4.3125 12 4.3125H10.535C9.90509 6.15333 8.7841 7.87808 7.51888 9.40644L9.39145 11.2211C9.61454 11.4372 9.62014 11.7934 9.40395 12.0164C9.18776 12.2395 8.83165 12.2451 8.60855 12.0289L6.78179 10.2587C5.64887 11.5154 4.44166 12.6301 3.36607 13.5521C3.1302 13.7543 2.77509 13.7269 2.57292 13.4911C2.37074 13.2552 2.39806 12.9001 2.63393 12.6979C3.70577 11.7792 4.89672 10.677 6.0022 9.44316C5.67932 9.05887 5.32334 8.59881 5.00214 8.1594C4.57201 7.57099 4.17054 6.97387 3.99688 6.62656C3.85795 6.34869 3.97058 6.01082 4.24844 5.87188C4.52631 5.73295 4.86418 5.84558 5.00312 6.12344C5.12946 6.37613 5.47799 6.90401 5.91036 7.49551C6.18337 7.86899 6.4762 8.24934 6.74484 8.57653C7.83155 7.24714 8.76451 5.80712 9.33836 4.3125H1.5C1.18934 4.3125 0.9375 4.06066 0.9375 3.75C0.9375 3.43934 1.18934 3.1875 1.5 3.1875H6.1875V2.25C6.1875 1.93934 6.43934 1.6875 6.75 1.6875Z" fill="#1C2024"/>
<path fill-rule="evenodd" clip-rule="evenodd" d="M13.1252 7.3125C13.3586 7.3125 13.5677 7.45664 13.6508 7.67475L16.6508 15.5498C16.7614 15.8401 16.6157 16.1651 16.3254 16.2756C16.0351 16.3862 15.7101 16.2406 15.5995 15.9502L14.8804 14.0625H11.3699L10.6508 15.9502C10.5402 16.2406 10.2152 16.3862 9.9249 16.2756C9.6346 16.1651 9.48891 15.8401 9.5995 15.5498L12.5995 7.67475C12.6826 7.45664 12.8917 7.3125 13.1252 7.3125ZM11.7985 12.9375H14.4518L13.1252 9.45508L11.7985 12.9375Z" fill="#1C2024"/>
</svg>
