<?xml version="1.0" encoding="UTF-8"?>
<svg id="Outlines" xmlns="http://www.w3.org/2000/svg" viewBox="0 0 80 80">
  <defs>
    <style>
      .cls-1, .cls-2, .cls-3 {
        stroke-width: 0px;
      }

      .cls-2 {
        fill: #ffa900;
      }

      .cls-3 {
        fill: #005cff;
      }
    </style>
  </defs>
  <path class="cls-1" d="m19.42,28.34h-1.79l4.03-11.18h1.95l4.03,11.18h-1.79l-3.16-9.15h-.09l-3.17,9.15Zm.3-4.38h5.81v1.42h-5.81v-1.42Z"/>
  <path class="cls-2" d="m30.22,38.74h-15.17c-4.64,0-8.41-3.77-8.41-8.41v-15.17c0-4.64,3.77-8.41,8.41-8.41h15.17c4.64,0,8.41,3.77,8.41,8.41v15.17c0,4.64-3.77,8.41-8.41,8.41ZM15.05,8.74c-3.54,0-6.41,2.88-6.41,6.41v15.17c0,3.54,2.88,6.41,6.41,6.41h15.17c3.54,0,6.41-2.88,6.41-6.41v-15.17c0-3.54-2.88-6.41-6.41-6.41h-15.17Z"/>
  <path class="cls-3" d="m64.95,73.26h-15.17c-4.64,0-8.41-3.77-8.41-8.41v-15.17c0-4.64,3.77-8.41,8.41-8.41h15.17c4.64,0,8.41,3.77,8.41,8.41v15.17c0,4.64-3.77,8.41-8.41,8.41Zm-15.17-30c-3.54,0-6.41,2.88-6.41,6.41v15.17c0,3.54,2.88,6.41,6.41,6.41h15.17c3.54,0,6.41-2.88,6.41-6.41v-15.17c0-3.54-2.88-6.41-6.41-6.41h-15.17Z"/>
  <g>
    <path class="cls-1" d="m49.18,17.99h8.93v1.45h-1.48c.23.36.35.73.35,1.13,0,.83-.38,1.49-1.15,1.96.35.33.66.71.94,1.14.28.43.42.92.42,1.47,0,.77-.25,1.36-.76,1.76-.51.4-1.19.6-2.03.6-.65,0-1.25-.15-1.81-.45-.55-.3-1.08-.8-1.58-1.5-.5-.7-.99-1.64-1.48-2.82l1.51-.57c.48,1.23.97,2.18,1.48,2.84s1.08.99,1.73.99c.37,0,.66-.09.87-.26.21-.17.32-.45.32-.82s-.1-.7-.29-.99c-.19-.29-.47-.58-.84-.84-.32.05-.65.09-1.01.11l-.08-1.42c.64-.02,1.14-.12,1.49-.31.35-.18.53-.5.53-.96,0-.22-.06-.42-.17-.6-.11-.17-.25-.33-.43-.46h-5.47v-1.45Z"/>
    <path class="cls-1" d="m62.18,25.89c-.65,0-1.23-.14-1.73-.42-.5-.28-.9-.67-1.19-1.16-.29-.49-.44-1.07-.44-1.72s.14-1.24.43-1.73c.29-.49.68-.87,1.18-1.14.5-.27,1.09-.4,1.76-.4s1.25.13,1.75.4c.5.27.9.65,1.18,1.15.29.49.43,1.08.43,1.75s-.15,1.22-.44,1.71c-.29.49-.69.87-1.19,1.15-.5.27-1.09.41-1.75.41Zm-.03-1.47c.48,0,.87-.17,1.18-.5.3-.34.46-.78.46-1.34s-.15-1-.44-1.32c-.29-.32-.67-.48-1.14-.48s-.87.17-1.17.51c-.3.34-.45.79-.45,1.35s.14.98.43,1.31c.29.32.66.48,1.13.48Z"/>
  </g>
  <path class="cls-1" d="m58.03,64.6c.19-.37.36-.71.49-1.03.13-.32.2-.61.2-.88,0-.19-.03-.35-.1-.47-.07-.12-.2-.23-.39-.31-.19-.09-.48-.18-.87-.27-1.02-.23-1.82-.59-2.41-1.07-.59-.48-.88-1.19-.88-2.14,0-.77.2-1.41.6-1.89.4-.49.96-.84,1.68-1.05v-.08c-1.19-.26-1.79-.93-1.79-2,0-.61.19-1.08.57-1.4.38-.32.92-.57,1.63-.74-.3.02-.64.04-1.03.06s-.69.03-.89.03h-.29v-1.45h6.11v1.36h-.5c-.72,0-1.36.05-1.92.15-.55.1-.99.29-1.31.57-.32.28-.47.68-.47,1.21,0,.46.16.83.48,1.11.32.29.9.43,1.75.43h1.65v1.45h-1.68c-.94,0-1.61.18-2.02.53-.41.35-.61.84-.61,1.46,0,.46.09.8.27,1.04.18.23.44.41.79.54s.79.24,1.31.35c.61.13,1.07.3,1.39.5s.53.42.64.68c.11.25.17.53.17.82,0,.46-.06.88-.18,1.28s-.3.8-.54,1.23h-1.85Z"/>
  <path class="cls-1" d="m26.29,56.94c0,.61-.13,1.19-.39,1.73-.26.54-.7.97-1.31,1.3-.61.33-1.44.49-2.49.49h-1.18v2.26h-1.96v-10.9h1.96v1.79h1.38c1.39,0,2.41.3,3.04.9.63.6.95,1.42.95,2.44Zm-4.49,1.92c.86,0,1.49-.15,1.89-.44.41-.29.61-.78.61-1.45,0-.6-.18-1.05-.55-1.34-.37-.29-.95-.44-1.74-.44h-1.08v3.67h.87Z"/>
</svg>