<?xml version="1.0" encoding="UTF-8"?>
<svg id="Layer_1" data-name="Layer 1" xmlns="http://www.w3.org/2000/svg" viewBox="0 0 20 20">
  <defs>
    <style>
      .cls-1 {
        fill-rule: evenodd;
        stroke-width: 0px;
      }
    </style>
  </defs>
  <path class="cls-1" d="M16.05,2c1.08,0,1.95.88,1.95,1.95v12.09c0,1.08-.88,1.95-1.95,1.95H3.95c-1.08,0-1.95-.88-1.95-1.95V3.95c0-1.08.88-1.95,1.95-1.95h12.09ZM7.01,15.23v-7.05h-2.34v7.05h2.34ZM15.47,15.23v-4.04c0-2.17-1.16-3.17-2.7-3.17-1.24,0-1.8.68-2.11,1.16v-1h-2.34c.03.66,0,7.05,0,7.05h2.34v-3.94c0-.21.02-.42.08-.57.17-.42.56-.86,1.2-.86.85,0,1.19.65,1.19,1.59v3.77h2.34ZM5.86,4.77c-.8,0-1.33.53-1.33,1.22s.51,1.22,1.3,1.22h.02c.82,0,1.33-.54,1.33-1.22-.02-.69-.51-1.22-1.31-1.22h0Z"/>
</svg>