<svg width="18" height="18" viewBox="0 0 18 18" fill="none" xmlns="http://www.w3.org/2000/svg">
<path d="M9.02311 9.39779C9.24278 9.17812 9.24278 8.82197 9.02311 8.6023L6.39811 5.9773C6.17844 5.75763 5.82229 5.75763 5.60262 5.9773C5.38295 6.19697 5.38295 6.55312 5.60262 6.77279L7.82987 9.00005L5.60262 11.2273C5.38295 11.447 5.38295 11.8031 5.60262 12.0228C5.82229 12.2425 6.17844 12.2425 6.39811 12.0228L9.02311 9.39779Z" fill="#1C2024"/>
<path d="M13.5231 9.39779C13.7428 9.17812 13.7428 8.82197 13.5231 8.6023L10.8981 5.9773C10.6784 5.75763 10.3223 5.75763 10.1026 5.9773C9.88295 6.19697 9.88295 6.55312 10.1026 6.77279L12.3299 9.00005L10.1026 11.2273C9.88295 11.447 9.88295 11.8031 10.1026 12.0228C10.3223 12.2425 10.6784 12.2425 10.8981 12.0228L13.5231 9.39779Z" fill="#1C2024"/>
<path fill-rule="evenodd" clip-rule="evenodd" d="M2.925 1.6875C2.24155 1.6875 1.6875 2.24155 1.6875 2.925V15.075C1.6875 15.7585 2.24155 16.3125 2.925 16.3125H15.075C15.7585 16.3125 16.3125 15.7585 16.3125 15.075V2.925C16.3125 2.24155 15.7585 1.6875 15.075 1.6875H2.925ZM2.8125 2.925C2.8125 2.86287 2.86287 2.8125 2.925 2.8125H15.075C15.1371 2.8125 15.1875 2.86287 15.1875 2.925V15.075C15.1875 15.1371 15.1371 15.1875 15.075 15.1875H2.925C2.86287 15.1875 2.8125 15.1371 2.8125 15.075V2.925Z" fill="#1C2024"/>
</svg>
