<?xml version="1.0" encoding="UTF-8"?>
<svg id="Artwork" xmlns="http://www.w3.org/2000/svg" viewBox="0 0 80 80">
  <defs>
    <style>
      .cls-1 {
        fill: #fff;
        stroke-miterlimit: 10;
      }

      .cls-1, .cls-2, .cls-3, .cls-4 {
        stroke-linecap: round;
        stroke-width: 2px;
      }

      .cls-1, .cls-4 {
        stroke: #150d2d;
      }

      .cls-2 {
        stroke: #005cff;
      }

      .cls-2, .cls-3, .cls-4 {
        fill: none;
        stroke-linejoin: round;
      }

      .cls-3 {
        stroke: #ffa900;
      }

      .cls-5 {
        stroke-width: 0px;
      }
    </style>
  </defs>
  <g>
    <g>
      <line class="cls-1" x1="43.05" y1="32.73" x2="36.05" y2="32.73"/>
      <polyline class="cls-4" points="39.59 36.27 36.05 32.73 39.59 29.2"/>
    </g>
    <g>
      <line class="cls-1" x1="36.05" y1="47.27" x2="43.05" y2="47.27"/>
      <polyline class="cls-4" points="39.52 43.73 43.05 47.27 39.52 50.8"/>
    </g>
  </g>
  <path class="cls-5" d="m52.59,42.68c0-1.86.44-3.58,1.78-5-.83-.97-1.8-1.93-2.56-2.63l.06-.09,2.03-.15c.97.99,2.37,2.58,4.36,5.04.76-.51,1.23-1.27,1.23-2.48-.02-.72-.21-1.57-.57-2.39l1.86-.17c.25.72.36,1.4.36,2.24,0,1.55-.8,2.94-2.16,3.73,1.02,1.25,2.63,3.52,3.2,4.43h-2.01c-.64-1.02-2.27-3.37-4.98-6.52-.83,1.02-1,2.37-.97,3.58.02,1.08.28,2.14.53,2.94h-1.82c-.21-.74-.34-1.67-.34-2.52Z"/>
  <path class="cls-5" d="m19.08,45.59h-1.79l4.03-11.18h1.95l4.03,11.18h-1.79l-3.16-9.15h-.09l-3.17,9.15Zm.3-4.38h5.81v1.42h-5.81v-1.42Z"/>
  <path class="cls-3" d="m49.2,22.21l8.59-8.59c-1.69-1.14-3.5-2.13-5.4-2.93s-3.9-1.43-5.97-1.85-4.22-.65-6.41-.65-4.34.22-6.41.65-4.07,1.05-5.97,1.85-3.71,1.79-5.4,2.93-3.27,2.45-4.71,3.89-2.74,3.02-3.89,4.71-2.13,3.5-2.93,5.4-1.43,3.9-1.85,5.97-.65,4.22-.65,6.41.22,4.34.65,6.41,1.05,4.07,1.85,5.97,1.79,3.71,2.93,5.4"/>
  <path class="cls-2" d="m66.38,22.21c1.14,1.69,2.13,3.5,2.93,5.4s1.43,3.9,1.85,5.97.65,4.22.65,6.41-.22,4.34-.65,6.41-1.05,4.07-1.85,5.97-1.79,3.71-2.93,5.4-2.45,3.27-3.89,4.71-3.02,2.74-4.71,3.89-3.5,2.13-5.4,2.93-3.9,1.43-5.97,1.85-4.22.65-6.41.65-4.34-.22-6.41-.65-4.07-1.05-5.97-1.85-3.71-1.79-5.4-2.93l8.59-8.59"/>
</svg>