<?xml version="1.0" encoding="UTF-8"?>
<svg id="Layer_1" data-name="Layer 1" xmlns="http://www.w3.org/2000/svg" viewBox="0 0 20 20">
  <defs>
    <style>
      .cls-1 {
        fill-rule: evenodd;
        stroke-width: 0px;
      }
    </style>
  </defs>
  <path class="cls-1" d="M16.05,2c1.08,0,1.95.88,1.95,1.95v12.09c0,1.08-.88,1.95-1.95,1.95H3.95c-1.08,0-1.95-.88-1.95-1.95V3.95c0-1.08.88-1.95,1.95-1.95h12.09ZM15.39,7.49c-.13-.48-.51-.87-.99-.99-.88-.24-4.4-.24-4.4-.24,0,0-3.52,0-4.4.24-.48.13-.87.51-.99.99-.24.88-.24,2.71-.24,2.71,0,0,0,1.83.24,2.71.13.48.51.87.99.99.88.24,4.4.24,4.4.24,0,0,3.52,0,4.4-.24.48-.13.87-.51.99-.99.24-.88.24-2.71.24-2.71,0,0,0-1.83-.24-2.71ZM8.87,11.88v-3.38l2.92,1.69-2.92,1.69h0Z"/>
</svg>